<?xml version="1.0" encoding="UTF-8" standalone="no"?>
<!-- Created with Inkscape (http://www.inkscape.org/) -->

<svg
   xmlns:dc="http://purl.org/dc/elements/1.1/"
   xmlns:cc="http://creativecommons.org/ns#"
   xmlns:rdf="http://www.w3.org/1999/02/22-rdf-syntax-ns#"
   xmlns:svg="http://www.w3.org/2000/svg"
   xmlns="http://www.w3.org/2000/svg"
   xmlns:sodipodi="http://sodipodi.sourceforge.net/DTD/sodipodi-0.dtd"
   xmlns:inkscape="http://www.inkscape.org/namespaces/inkscape"
   width="210mm"
   height="297mm"
   viewBox="0 0 210 297"
   version="1.1"
   id="svg8"
   inkscape:version="0.92.5 (2060ec1f9f, 2020-04-08)"
   sodipodi:docname="info.svg">
  <defs
     id="defs2" />
  <sodipodi:namedview
     id="base"
     pagecolor="#ffffff"
     bordercolor="#666666"
     borderopacity="1.0"
     inkscape:pageopacity="0.0"
     inkscape:pageshadow="2"
     inkscape:zoom="0.35"
     inkscape:cx="400"
     inkscape:cy="217.14286"
     inkscape:document-units="mm"
     inkscape:current-layer="layer1"
     showgrid="false"
     inkscape:window-width="1848"
     inkscape:window-height="1016"
     inkscape:window-x="1992"
     inkscape:window-y="27"
     inkscape:window-maximized="1" />
  <metadata
     id="metadata5">
    <rdf:RDF>
      <cc:Work
         rdf:about="">
        <dc:format>image/svg+xml</dc:format>
        <dc:type
           rdf:resource="http://purl.org/dc/dcmitype/StillImage" />
        <dc:title></dc:title>
      </cc:Work>
    </rdf:RDF>
  </metadata>
  <g
     inkscape:label="Layer 1"
     inkscape:groupmode="layer"
     id="layer1">
    <path
       id="path49"
       d="m 101.29763,116.98884 c -18.435611,0 -33.356401,14.2445 -33.356401,31.84449 0,17.6 14.92079,31.84449 33.356401,31.84449 18.4356,0 33.35639,-14.24449 33.35639,-31.84449 0,-17.59999 -14.92079,-31.84449 -33.35639,-31.84449 z m -4.963441,12.12638 c 0.64045,-0.0946 1.31139,-0.18924 1.99757,-0.23292 0.71669,-0.0437 1.38001,-0.0728 1.951831,-0.0728 0.61757,0 1.31138,0.0218 2.05094,0.0728 0.71669,0.0437 1.4105,0.1383 2.02807,0.23292 0.0991,0.61142 0.17536,1.201 0.22111,1.79057 0.0229,0.58958 0.0457,1.201 0.0457,1.79057 0,0.56774 -0.0229,1.15732 -0.0457,1.76874 -0.0457,0.61141 -0.12199,1.20099 -0.22111,1.81968 -0.61757,0.0946 -1.28851,0.16741 -1.99757,0.21108 -0.71669,0.0218 -1.38,0.0437 -2.0052,0.0437 -0.594691,0 -1.258011,-0.0219 -1.974691,-0.0437 -0.73956,-0.0437 -1.4105,-0.11645 -2.05095,-0.21108 -0.2211,-1.20099 -0.32022,-2.40926 -0.32022,-3.58842 -0.008,-1.1282 0.0915,-2.32919 0.32022,-3.58114 z m 12.450521,39.74193 H 93.810539 c -0.2211,-0.91712 -0.32022,-1.86336 -0.32022,-2.83143 0,-0.45129 0.0229,-0.94624 0.0763,-1.46303 0.0457,-0.51679 0.14486,-1.01174 0.24397,-1.46303 h 3.65968 V 146.6861 h -3.65968 c -0.0991,-0.45128 -0.19823,-0.94624 -0.24397,-1.46303 -0.0457,-0.51679 -0.0763,-0.9899 -0.0763,-1.46302 0,-0.96807 0.0991,-1.90703 0.32022,-2.83143 h 11.314491 v 22.17104 h 3.65968 c 0.0991,0.45129 0.19823,0.94624 0.24398,1.46303 0.0457,0.51679 0.0762,1.01174 0.0762,1.46303 0,0.96807 -0.0991,1.91431 -0.32022,2.83143 z"
       inkscape:connector-curvature="0"
       style="stroke-width:0.07449526" />
  </g>
</svg>
